<svg width="40" height="40" viewBox="0 0 40 40" fill="none" xmlns="http://www.w3.org/2000/svg">
<g id="Clipboard check">
<path id="Icon" d="M15.7078 22.6262C15.3172 22.2357 14.6841 22.2357 14.2935 22.6262C13.903 23.0168 13.903 23.6499 14.2935 24.0404L15.7078 22.6262ZM18.334 26.6667L17.6269 27.3738C18.0174 27.7643 18.6506 27.7643 19.0411 27.3738L18.334 26.6667ZM25.7078 20.7071C26.0983 20.3166 26.0983 19.6834 25.7078 19.2929C25.3172 18.9024 24.6841 18.9024 24.2935 19.2929L25.7078 20.7071ZM30.6673 11.6667V31.6667H32.6673V11.6667H30.6673ZM28.334 34H11.6673V36H28.334V34ZM9.33398 31.6667V11.6667H7.33398V31.6667H9.33398ZM11.6673 9.33333H15.0007V7.33333H11.6673V9.33333ZM25.0007 9.33333H28.334V7.33333H25.0007V9.33333ZM11.6673 34C10.3787 34 9.33398 32.9553 9.33398 31.6667H7.33398C7.33398 34.0599 9.27408 36 11.6673 36V34ZM30.6673 31.6667C30.6673 32.9553 29.6226 34 28.334 34V36C30.7272 36 32.6673 34.0599 32.6673 31.6667H30.6673ZM32.6673 11.6667C32.6673 9.27343 30.7272 7.33333 28.334 7.33333V9.33333C29.6226 9.33333 30.6673 10.378 30.6673 11.6667H32.6673ZM9.33398 11.6667C9.33398 10.378 10.3787 9.33333 11.6673 9.33333V7.33333C9.27408 7.33333 7.33398 9.27343 7.33398 11.6667H9.33398ZM14.2935 24.0404L17.6269 27.3738L19.0411 25.9596L15.7078 22.6262L14.2935 24.0404ZM19.0411 27.3738L25.7078 20.7071L24.2935 19.2929L17.6269 25.9596L19.0411 27.3738ZM18.334 6H21.6673V4H18.334V6ZM21.6673 10.6667H18.334V12.6667H21.6673V10.6667ZM18.334 10.6667C17.0453 10.6667 16.0007 9.622 16.0007 8.33333H14.0007C14.0007 10.7266 15.9408 12.6667 18.334 12.6667V10.6667ZM24.0007 8.33333C24.0007 9.622 22.956 10.6667 21.6673 10.6667V12.6667C24.0606 12.6667 26.0007 10.7266 26.0007 8.33333H24.0007ZM21.6673 6C22.956 6 24.0007 7.04467 24.0007 8.33333H26.0007C26.0007 5.9401 24.0606 4 21.6673 4V6ZM18.334 4C15.9408 4 14.0007 5.9401 14.0007 8.33333H16.0007C16.0007 7.04467 17.0453 6 18.334 6V4Z" fill="white"/>
</g>
</svg>
