<svg width="40" height="40" viewBox="0 0 40 40" fill="none" xmlns="http://www.w3.org/2000/svg">
<g id="Truck">
<path id="Icon" d="M21.6667 26.6673V10.0007C21.6667 9.08018 20.9205 8.33398 20 8.33398H6.66667C5.74619 8.33398 5 9.08018 5 10.0007V26.6673C5 27.5878 5.74619 28.334 6.66667 28.334H8.33333M21.6667 26.6673C21.6667 27.5878 20.9205 28.334 20 28.334H15M21.6667 26.6673L21.6667 13.334C21.6667 12.4135 22.4129 11.6673 23.3333 11.6673H27.643C28.085 11.6673 28.5089 11.8429 28.8215 12.1555L34.5118 17.8458C34.8244 18.1584 35 18.5823 35 19.0243V26.6673C35 27.5878 34.2538 28.334 33.3333 28.334H31.6667M21.6667 26.6673C21.6667 27.5878 22.4129 28.334 23.3333 28.334H25M8.33333 28.334C8.33333 30.1749 9.82572 31.6673 11.6667 31.6673C13.5076 31.6673 15 30.1749 15 28.334M8.33333 28.334C8.33333 26.493 9.82572 25.0007 11.6667 25.0007C13.5076 25.0007 15 26.493 15 28.334M25 28.334C25 30.1749 26.4924 31.6673 28.3333 31.6673C30.1743 31.6673 31.6667 30.1749 31.6667 28.334M25 28.334C25 26.493 26.4924 25.0007 28.3333 25.0007C30.1743 25.0007 31.6667 26.493 31.6667 28.334" stroke="white" stroke-width="2"/>
</g>
</svg>
